<?xml version="1.0" encoding="utf-8"?>
<!-- Generator: Adobe Illustrator 20.1.0, SVG Export Plug-In . SVG Version: 6.00 Build 0)  -->
<svg version="1.1" id="Layer_1" xmlns="http://www.w3.org/2000/svg" xmlns:xlink="http://www.w3.org/1999/xlink" x="0px" y="0px"
	 viewBox="0 0 144.2 144.2" style="enable-background:new 0 0 144.2 144.2;" xml:space="preserve">
<title>logo-mb</title>
<path d="M72.1,0C32.3,0,0,32.3,0,72.1s32.3,72.1,72.1,72.1s72.1-32.3,72.1-72.1l0,0C144.1,32.3,111.9,0,72.1,0z
	 M72.1,136c-35.3,0-63.9-28.6-64-63.9s28.6-64,63.9-64s64,28.6,64,63.9l0,0C136,107.4,107.4,136,72.1,136z"  fill="#fff"/>
<path d="M91.9,70.8c8-8,7.9-21-0.1-29c-3.8-3.8-9-5.9-14.3-6H60.6v-0.1h-9.1v48.4H39.3V92h12.2v16.4H56v0.1h25
	c11.2-0.1,20.3-9.2,20.4-20.4C101.5,81.1,97.9,74.6,91.9,70.8z M60.6,45h16.8c6.3,0.1,11.3,5.3,11.2,11.6c-0.1,6-4.9,10.9-10.9,11.1
	h-17L60.6,45z M81.1,99.5H60.6v-7.4h12.7v-8H60.6v-7.4h20.5c6.3,0,11.4,5.1,11.4,11.4C92.4,94.4,87.4,99.5,81.1,99.5L81.1,99.5z" fill="#fff"/>
</svg>
